<svg width="37" height="37" viewBox="0 0 37 37" fill="none" xmlns="http://www.w3.org/2000/svg">
<g clip-path="url(#clip0_1_432)">
<g clip-path="url(#clip1_1_432)">
<path d="M30.875 16.8841C31.3748 15.6585 31.5418 14.3226 31.3591 13.0117C31.1765 11.7008 30.6507 10.4614 29.835 9.41909C29.0198 8.37854 27.9437 7.57236 26.7159 7.08249C25.4882 6.59262 24.1526 6.43654 22.845 6.63009C22.0354 5.586 20.964 4.77469 19.7395 4.27853C18.515 3.78238 17.181 3.61904 15.873 3.80509C14.5641 3.99222 13.3282 4.52302 12.2912 5.34338C11.2543 6.16375 10.4533 7.24436 9.97001 8.47509C8.6603 8.65455 7.42156 9.178 6.38001 9.99209C5.33717 10.807 4.5286 11.8834 4.03647 13.112C3.54433 14.3406 3.38616 15.6776 3.57801 16.9871C3.7689 18.2966 4.3026 19.5323 5.12501 20.5691C4.52061 22.0534 4.40683 23.6922 4.80032 25.2458C5.1938 26.7994 6.07392 28.1864 7.31201 29.2041C8.13283 29.8778 9.08766 30.369 10.113 30.6451C10.7485 30.8194 11.4041 30.9095 12.063 30.9131C12.429 30.9131 12.794 30.8851 13.156 30.8311C13.9658 31.8748 15.0373 32.6857 16.2618 33.1815C17.4863 33.6773 18.8202 33.8404 20.128 33.6541C21.436 33.4651 22.6708 32.9337 23.7073 32.1138C24.7438 31.2938 25.5451 30.2145 26.03 28.9851C27.0103 28.8497 27.954 28.5215 28.8069 28.0195C29.6597 27.5176 30.4047 26.8517 30.9989 26.0604C31.5931 25.2691 32.0248 24.368 32.2691 23.409C32.5133 22.4501 32.5653 21.4522 32.422 20.4731C32.2311 19.1636 31.6974 17.9278 30.875 16.8911V16.8841ZM25.332 8.87409C26.6804 9.23581 27.8338 10.1104 28.546 11.3111C29.259 12.5111 29.476 13.9441 29.15 15.3031C29.0228 15.2177 28.8927 15.1367 28.76 15.0601L22.812 11.6131C22.6495 11.5189 22.4649 11.4693 22.277 11.4693C22.0891 11.4693 21.9046 11.5189 21.742 11.6131L15.862 15.0161V12.5411L21.275 9.41109C21.8822 9.05779 22.5534 8.8285 23.2498 8.73649C23.9462 8.64448 24.6539 8.69159 25.332 8.87509V8.87409ZM20.139 19.9641L18 21.2011L15.861 19.9641V17.4901L18 16.2531L20.139 17.4901V19.9651V19.9641ZM11.584 11.2281C11.5848 10.1817 11.8917 9.15831 12.4669 8.28411C13.0421 7.40991 13.8604 6.72304 14.821 6.30809C15.7815 5.89469 16.8423 5.77248 17.8716 5.95666C18.9009 6.14084 19.8535 6.62328 20.611 7.34409C20.477 7.41309 20.343 7.47809 20.21 7.56109L14.257 10.9961C14.0945 11.0902 13.9596 11.2253 13.8658 11.3881C13.7721 11.5508 13.7229 11.7353 13.723 11.9231V18.7271L11.583 17.4891L11.584 11.2281ZM6.35201 13.2271C7.03272 12.037 8.14699 11.156 9.46201 10.7681C9.45164 10.9212 9.44597 11.0746 9.44501 11.2281V18.1081C9.44508 18.2961 9.49454 18.4808 9.58843 18.6436C9.68232 18.8065 9.81736 18.9418 9.98001 19.0361L15.861 22.4371L13.722 23.6811L8.30901 20.5441C7.08108 19.8316 6.18562 18.6614 5.8188 17.2899C5.45198 15.9184 5.64372 14.4575 6.35201 13.2271ZM10.668 28.5791C9.31984 28.2176 8.16641 27.3434 7.45401 26.1431C6.7409 24.9417 6.52457 23.5095 6.85101 22.1511C6.97701 22.2351 7.10601 22.3171 7.23901 22.3931L13.188 25.8401C13.3506 25.9342 13.5351 25.9838 13.723 25.9838C13.9109 25.9838 14.0954 25.9342 14.258 25.8401L20.138 22.4381V24.9121L14.725 28.0431C14.1179 28.3964 13.4467 28.6258 12.7502 28.7178C12.0538 28.8098 11.3461 28.7626 10.668 28.5791ZM24.416 26.2261C24.4161 27.2726 24.1101 28.2963 23.5356 29.171C22.9612 30.0457 22.1434 30.7333 21.183 31.1491C20.2226 31.5633 19.1616 31.6862 18.1319 31.5026C17.1021 31.3189 16.1491 30.8368 15.391 30.1161C15.5263 30.047 15.6597 29.9744 15.791 29.8981L21.743 26.4581C21.9057 26.3641 22.0408 26.229 22.1347 26.0663C22.2287 25.9036 22.2781 25.719 22.278 25.5311V18.7271L24.416 19.9641V26.2261ZM29.648 24.2261C28.9675 25.4166 27.8532 26.298 26.538 26.6861C26.5484 26.533 26.5541 26.3796 26.555 26.2261V19.3461C26.5552 19.1579 26.5059 18.973 26.412 18.8099C26.3181 18.6468 26.1829 18.5114 26.02 18.4171L20.139 15.0171L22.278 13.7791L27.691 16.9091C28.919 17.6216 29.8144 18.7918 30.1812 20.1633C30.548 21.5347 30.3563 22.9957 29.648 24.2261Z" fill="#01A67E"/>
</g>
</g>
<defs>
<clipPath id="clip0_1_432">
<rect width="36" height="36" fill="white" transform="translate(0.5 0.730103)"/>
</clipPath>
<clipPath id="clip1_1_432">
<rect width="36" height="36" fill="white" transform="translate(0.5 0.730103)"/>
</clipPath>
</defs>
</svg>
