<svg width="37" height="37" viewBox="0 0 37 37" fill="none" xmlns="http://www.w3.org/2000/svg">
<g clip-path="url(#clip0_1_380)">
<g clip-path="url(#clip1_1_380)">
<mask id="mask0_1_380" style="mask-type:luminance" maskUnits="userSpaceOnUse" x="8" y="3" width="21" height="30">
<path d="M8.5 3.7301H28.5V32.7301H8.5V3.7301Z" fill="white"/>
</mask>
<g mask="url(#mask0_1_380)">
<path d="M13.5 32.7301C16.26 32.7301 18.5 30.5651 18.5 27.8971V23.0631H13.5C10.74 23.0631 8.5 25.2291 8.5 27.8971C8.5 30.5651 10.74 32.7301 13.5 32.7301Z" fill="#0ACF83"/>
<path d="M8.5 18.2301C8.5 15.5621 10.74 13.3961 13.5 13.3961H18.5V23.0631H13.5C10.74 23.0631 8.5 20.8981 8.5 18.2301Z" fill="#A259FF"/>
<path d="M8.5 8.5631C8.5 5.8951 10.74 3.7301 13.5 3.7301H18.5V13.3971H13.5C10.74 13.3971 8.5 11.2311 8.5 8.5631Z" fill="#F24E1E"/>
<path d="M18.5 3.7301H23.5C26.26 3.7301 28.5 5.8951 28.5 8.5631C28.5 11.2311 26.26 13.3971 23.5 13.3971H18.5V3.7301Z" fill="#FF7262"/>
<path d="M28.5 18.2301C28.5 20.8981 26.26 23.0631 23.5 23.0631C20.74 23.0631 18.5 20.8981 18.5 18.2301C18.5 15.5621 20.74 13.3961 23.5 13.3961C26.26 13.3961 28.5 15.5621 28.5 18.2301Z" fill="#1ABCFE"/>
</g>
</g>
</g>
<defs>
<clipPath id="clip0_1_380">
<rect width="36" height="36" fill="white" transform="translate(0.5 0.730103)"/>
</clipPath>
<clipPath id="clip1_1_380">
<rect width="36" height="36" fill="white" transform="translate(0.5 0.730103)"/>
</clipPath>
</defs>
</svg>
