<svg width="14" height="15" viewBox="0 0 14 15" fill="none" xmlns="http://www.w3.org/2000/svg">
<path opacity="0.2" d="M11.8125 6.65247V11.9025H8.3125V8.40247H5.6875V11.9025H2.1875V6.65247C2.18745 6.595 2.19873 6.53809 2.22069 6.48498C2.24265 6.43187 2.27485 6.3836 2.31547 6.34294L6.69047 1.96794C6.7311 1.92727 6.77935 1.895 6.83246 1.87298C6.88558 1.85096 6.94251 1.83963 7 1.83963C7.05749 1.83963 7.11442 1.85096 7.16754 1.87298C7.22065 1.895 7.2689 1.92727 7.30953 1.96794L11.6845 6.34294C11.7251 6.3836 11.7574 6.43187 11.7793 6.48498C11.8013 6.53809 11.8125 6.595 11.8125 6.65247Z" fill="#F6F6F6"/>
<path d="M11.9935 6.03342L7.61852 1.65842C7.45444 1.49445 7.23197 1.40234 7.00001 1.40234C6.76804 1.40234 6.54557 1.49445 6.38149 1.65842L2.00649 6.03342C1.92484 6.11446 1.86012 6.21093 1.81609 6.3172C1.77206 6.42348 1.7496 6.53745 1.75001 6.65249V11.9025C1.75001 12.0185 1.7961 12.1298 1.87815 12.2118C1.96019 12.2939 2.07147 12.34 2.18751 12.34H5.68751C5.80354 12.34 5.91482 12.2939 5.99686 12.2118C6.07891 12.1298 6.12501 12.0185 6.12501 11.9025V8.83998H7.87501V11.9025C7.87501 12.0185 7.9211 12.1298 8.00315 12.2118C8.08519 12.2939 8.19647 12.34 8.31251 12.34H11.8125C11.9285 12.34 12.0398 12.2939 12.1219 12.2118C12.2039 12.1298 12.25 12.0185 12.25 11.9025V6.65249C12.2504 6.53745 12.228 6.42348 12.1839 6.3172C12.1399 6.21093 12.0752 6.11446 11.9935 6.03342ZM11.375 11.465H8.75001V8.40248C8.75001 8.28645 8.70391 8.17517 8.62186 8.09313C8.53982 8.01108 8.42854 7.96499 8.31251 7.96499H5.68751C5.57147 7.96499 5.46019 8.01108 5.37815 8.09313C5.2961 8.17517 5.25001 8.28645 5.25001 8.40248V11.465H2.62501V6.65249L7.00001 2.27749L11.375 6.65249V11.465Z" fill="#F6F6F6"/>
</svg>
