<svg width="37" height="37" viewBox="0 0 37 37" fill="none" xmlns="http://www.w3.org/2000/svg">
<g clip-path="url(#clip0_1_413)">
<g clip-path="url(#clip1_1_413)">
<mask id="mask0_1_413" style="mask-type:luminance" maskUnits="userSpaceOnUse" x="0" y="0" width="37" height="37">
<path d="M0.5 0.730103H36.5V36.7301H0.5V0.730103Z" fill="white"/>
</mask>
<g mask="url(#mask0_1_413)">
<path d="M28.078 8.51308L28.366 8.49108L28.126 8.33108L26.086 6.97008L26.03 7.05308L26.085 6.97008C25.7873 6.77164 25.4317 6.67869 25.075 6.70608L9.86001 7.87608L9.64301 7.89208L9.79701 8.04608L11.502 9.75208L11.535 9.78408L11.581 9.78108L28.078 8.51308ZM8.07001 10.2811L7.90001 10.1101V23.7301C7.90001 24.0771 8.01201 24.4141 8.22001 24.6901L9.42001 26.2901L9.60001 26.5301V11.8101L9.57001 11.7801L8.07001 10.2811ZM29.007 27.9411L29.099 27.9341V11.2421L28.991 11.2511L12.491 12.5201L12.399 12.5271V29.2181L12.507 29.2101L29.007 27.9411ZM29.221 30.7331L11.927 32.0631C11.4407 32.1005 10.9528 32.0146 10.5085 31.8134C10.0641 31.6122 9.67774 31.3022 9.38501 30.9121L5.98001 26.3701C5.40879 25.6085 5.10001 24.6821 5.10001 23.7301V8.12008C5.09988 7.38929 5.37566 6.6854 5.87218 6.1492C6.36871 5.613 7.04936 5.28402 7.77801 5.22808L24.86 3.91408C25.8411 3.83863 26.8192 4.09425 27.638 4.64008L30.608 6.62008C31.0054 6.88484 31.3312 7.24362 31.5566 7.66456C31.782 8.08551 31.8999 8.55559 31.9 9.03308V27.8421C31.8996 28.5725 31.6236 29.2759 31.1272 29.8117C30.6307 30.3475 29.9503 30.6762 29.222 30.7321L29.221 30.7331ZM22.914 21.4531L23.099 21.7531V14.9811C23.099 14.6098 23.2465 14.2537 23.5091 13.9911C23.7716 13.7286 24.1277 13.5811 24.499 13.5811C24.8703 13.5811 25.2264 13.7286 25.489 13.9911C25.7515 14.2537 25.899 14.6098 25.899 14.9811V25.4811C25.899 25.8524 25.7515 26.2085 25.489 26.471C25.2264 26.7336 24.8703 26.8811 24.499 26.8811H23.749C23.5097 26.8811 23.2744 26.8198 23.0656 26.7031C22.8567 26.5863 22.6813 26.4179 22.556 26.2141L18.584 19.7581L18.399 19.4581V26.2301C18.399 26.6014 18.2515 26.9575 17.989 27.22C17.7264 27.4826 17.3703 27.6301 16.999 27.6301C16.6277 27.6301 16.2716 27.4826 16.0091 27.22C15.7465 26.9575 15.599 26.6014 15.599 26.2301V15.7301C15.599 15.3588 15.7465 15.0027 16.0091 14.7401C16.2716 14.4776 16.6277 14.3301 16.999 14.3301H17.749C17.9883 14.3301 18.2235 14.3915 18.4324 14.5082C18.6412 14.625 18.8167 14.7933 18.942 14.9971L22.914 21.4531Z" fill="#F1F1F1" stroke="#121212" stroke-width="0.2"/>
</g>
</g>
</g>
<defs>
<clipPath id="clip0_1_413">
<rect width="36" height="36" fill="white" transform="translate(0.5 0.730103)"/>
</clipPath>
<clipPath id="clip1_1_413">
<rect width="36" height="36" fill="white" transform="translate(0.5 0.730103)"/>
</clipPath>
</defs>
</svg>
